<mxfile host="Electron" modified="2024-07-25T13:29:52.319Z" agent="Mozilla/5.0 (X11; Linux x86_64) AppleWebKit/537.36 (KHTML, like Gecko) draw.io/24.6.4 Chrome/124.0.6367.207 Electron/30.0.6 Safari/537.36" etag="mW8yNjcEGU4Z2rpiYqrT" version="24.6.4" type="device">
  <diagram name="Page-1" id="gZO7lSeUpyeOHykqWosV">
    <mxGraphModel dx="1214" dy="1775" grid="1" gridSize="10" guides="1" tooltips="1" connect="1" arrows="1" fold="1" page="1" pageScale="1" pageWidth="827" pageHeight="1169" math="0" shadow="0">
      <root>
        <mxCell id="0" />
        <mxCell id="1" parent="0" />
        <mxCell id="GmffOXv_5HLjRrGuA_52-6" value="Mensa Menus&lt;div&gt;(HTML)&lt;/div&gt;" style="text;html=1;align=center;verticalAlign=middle;whiteSpace=wrap;rounded=0;" parent="1" vertex="1">
          <mxGeometry x="46.35" y="125.5" width="60" height="30" as="geometry" />
        </mxCell>
        <mxCell id="GmffOXv_5HLjRrGuA_52-9" value="" style="endArrow=classic;html=1;rounded=0;" parent="1" edge="1">
          <mxGeometry width="50" height="50" relative="1" as="geometry">
            <mxPoint x="240" y="140" as="sourcePoint" />
            <mxPoint x="110" y="140" as="targetPoint" />
          </mxGeometry>
        </mxCell>
        <mxCell id="GmffOXv_5HLjRrGuA_52-10" value="Retrieves" style="text;html=1;align=center;verticalAlign=middle;resizable=0;points=[];autosize=1;strokeColor=none;fillColor=none;" parent="1" vertex="1">
          <mxGeometry x="140" y="110" width="70" height="30" as="geometry" />
        </mxCell>
        <mxCell id="GmffOXv_5HLjRrGuA_52-11" value="" style="sketch=0;pointerEvents=1;shadow=0;dashed=0;html=1;strokeColor=none;fillColor=#505050;labelPosition=center;verticalLabelPosition=bottom;verticalAlign=top;outlineConnect=0;align=center;shape=mxgraph.office.concepts.clock;" parent="1" vertex="1">
          <mxGeometry x="135" y="150" width="15" height="15" as="geometry" />
        </mxCell>
        <mxCell id="GmffOXv_5HLjRrGuA_52-12" value="every 4 hours" style="text;html=1;align=center;verticalAlign=middle;resizable=0;points=[];autosize=1;strokeColor=none;fillColor=none;" parent="1" vertex="1">
          <mxGeometry x="140" y="142.5" width="100" height="30" as="geometry" />
        </mxCell>
        <mxCell id="GmffOXv_5HLjRrGuA_52-21" value="" style="endArrow=classic;html=1;rounded=0;" parent="1" edge="1">
          <mxGeometry width="50" height="50" relative="1" as="geometry">
            <mxPoint x="320" y="280" as="sourcePoint" />
            <mxPoint x="480" y="200" as="targetPoint" />
            <Array as="points">
              <mxPoint x="480" y="280" />
            </Array>
          </mxGeometry>
        </mxCell>
        <mxCell id="GmffOXv_5HLjRrGuA_52-22" value="Accesses Data" style="text;html=1;align=center;verticalAlign=middle;resizable=0;points=[];autosize=1;strokeColor=none;fillColor=none;" parent="1" vertex="1">
          <mxGeometry x="350" y="250" width="100" height="30" as="geometry" />
        </mxCell>
        <mxCell id="GmffOXv_5HLjRrGuA_52-29" value="CloudFormation&lt;div&gt;Stack&lt;/div&gt;" style="text;html=1;align=center;verticalAlign=middle;resizable=0;points=[];autosize=1;strokeColor=none;fillColor=none;" parent="1" vertex="1">
          <mxGeometry x="560" y="78" width="110" height="40" as="geometry" />
        </mxCell>
        <mxCell id="GmffOXv_5HLjRrGuA_52-15" value="AWS Lambda" style="text;html=1;align=center;verticalAlign=middle;resizable=0;points=[];autosize=1;strokeColor=none;fillColor=none;" parent="1" vertex="1">
          <mxGeometry x="232" y="172.5" width="100" height="30" as="geometry" />
        </mxCell>
        <mxCell id="GmffOXv_5HLjRrGuA_52-19" value="Stores Parsed&lt;div&gt;Information&lt;/div&gt;" style="text;html=1;align=center;verticalAlign=middle;resizable=0;points=[];autosize=1;strokeColor=none;fillColor=none;" parent="1" vertex="1">
          <mxGeometry x="332" y="100" width="100" height="40" as="geometry" />
        </mxCell>
        <mxCell id="GmffOXv_5HLjRrGuA_52-13" value="" style="endArrow=classic;html=1;rounded=0;" parent="1" edge="1">
          <mxGeometry width="50" height="50" relative="1" as="geometry">
            <mxPoint x="330" y="140" as="sourcePoint" />
            <mxPoint x="440" y="140" as="targetPoint" />
          </mxGeometry>
        </mxCell>
        <mxCell id="GmffOXv_5HLjRrGuA_52-30" value="AWS DynamoDB" style="text;html=1;align=center;verticalAlign=middle;resizable=0;points=[];autosize=1;strokeColor=none;fillColor=none;" parent="1" vertex="1">
          <mxGeometry x="422" y="170" width="120" height="30" as="geometry" />
        </mxCell>
        <mxCell id="GmffOXv_5HLjRrGuA_52-33" value="" style="endArrow=none;dashed=1;html=1;dashPattern=1 3;strokeWidth=2;rounded=0;exitX=0.5;exitY=0;exitDx=0;exitDy=0;exitPerimeter=0;" parent="1" edge="1">
          <mxGeometry width="50" height="50" relative="1" as="geometry">
            <mxPoint x="480" y="104" as="sourcePoint" />
            <mxPoint x="580" y="51" as="targetPoint" />
            <Array as="points">
              <mxPoint x="480" y="50" />
            </Array>
          </mxGeometry>
        </mxCell>
        <mxCell id="GmffOXv_5HLjRrGuA_52-34" value="" style="endArrow=none;dashed=1;html=1;dashPattern=1 3;strokeWidth=2;rounded=0;exitX=-0.026;exitY=0.344;exitDx=0;exitDy=0;exitPerimeter=0;entryX=0.5;entryY=0;entryDx=0;entryDy=0;" parent="1" source="gv1-5fCZoS6OW8AC6obV-7" target="GmffOXv_5HLjRrGuA_52-43" edge="1">
          <mxGeometry width="50" height="50" relative="1" as="geometry">
            <mxPoint x="591" y="42" as="sourcePoint" />
            <mxPoint x="279" y="112" as="targetPoint" />
            <Array as="points">
              <mxPoint x="280" y="40" />
            </Array>
          </mxGeometry>
        </mxCell>
        <mxCell id="GmffOXv_5HLjRrGuA_52-35" value="Alexa Skill" style="text;html=1;align=center;verticalAlign=middle;resizable=0;points=[];autosize=1;strokeColor=none;fillColor=none;" parent="1" vertex="1">
          <mxGeometry x="242" y="314" width="80" height="30" as="geometry" />
        </mxCell>
        <mxCell id="GmffOXv_5HLjRrGuA_52-36" value="Hungry&lt;div&gt;Student&lt;/div&gt;" style="shape=umlActor;verticalLabelPosition=bottom;verticalAlign=top;html=1;outlineConnect=0;" parent="1" vertex="1">
          <mxGeometry x="61.35000000000002" y="245" width="30" height="60" as="geometry" />
        </mxCell>
        <mxCell id="GmffOXv_5HLjRrGuA_52-37" value="" style="endArrow=classic;html=1;rounded=0;" parent="1" edge="1">
          <mxGeometry width="50" height="50" relative="1" as="geometry">
            <mxPoint x="100" y="280" as="sourcePoint" />
            <mxPoint x="240" y="280" as="targetPoint" />
          </mxGeometry>
        </mxCell>
        <mxCell id="GmffOXv_5HLjRrGuA_52-38" value="Uses" style="text;html=1;align=center;verticalAlign=middle;resizable=0;points=[];autosize=1;strokeColor=none;fillColor=none;" parent="1" vertex="1">
          <mxGeometry x="150" y="250" width="50" height="30" as="geometry" />
        </mxCell>
        <mxCell id="GmffOXv_5HLjRrGuA_52-40" value="./sam-app/" style="text;html=1;align=center;verticalAlign=middle;whiteSpace=wrap;rounded=0;" parent="1" vertex="1">
          <mxGeometry x="572" y="-3" width="86" height="30" as="geometry" />
        </mxCell>
        <mxCell id="GmffOXv_5HLjRrGuA_52-43" value="./menu-scraper-lambda/" style="text;html=1;align=center;verticalAlign=middle;whiteSpace=wrap;rounded=0;" parent="1" vertex="1">
          <mxGeometry x="200" y="88" width="160" height="30" as="geometry" />
        </mxCell>
        <mxCell id="GmffOXv_5HLjRrGuA_52-46" value="./alexa-skill/" style="text;html=1;align=center;verticalAlign=middle;whiteSpace=wrap;rounded=0;" parent="1" vertex="1">
          <mxGeometry x="238.17000000000002" y="228" width="87.67" height="30" as="geometry" />
        </mxCell>
        <mxCell id="UJLBgcVrnY4HgYjdAnPJ-1" value="Deployed Using" style="text;html=1;align=center;verticalAlign=middle;resizable=0;points=[];autosize=1;strokeColor=none;fillColor=none;" parent="1" vertex="1">
          <mxGeometry x="475" y="10" width="110" height="30" as="geometry" />
        </mxCell>
        <mxCell id="gv1-5fCZoS6OW8AC6obV-4" value="" style="shape=image;verticalLabelPosition=bottom;labelBackgroundColor=default;verticalAlign=top;aspect=fixed;imageAspect=0;image=data:image/svg+xml,PHN2ZyB4bWxuczp4bGluaz0iaHR0cDovL3d3dy53My5vcmcvMTk5OS94bGluayIgeG1sbnM9Imh0dHA6Ly93d3cudzMub3JnLzIwMDAvc3ZnIiB2ZXJzaW9uPSIxLjEiIHZpZXdCb3g9IjAgMCA2NCA2NCIgaGVpZ2h0PSI2NHB4IiB3aWR0aD0iNjRweCI+JiN4YTsgICAgPHRpdGxlPkljb24tQXJjaGl0ZWN0dXJlLzQ4L0FyY2hfQWxleGEtRm9yLUJ1c2luZXNzXzQ4PC90aXRsZT4mI3hhOyAgICA8ZyBmaWxsLXJ1bGU9ImV2ZW5vZGQiIGZpbGw9Im5vbmUiIHN0cm9rZS13aWR0aD0iMSIgc3Ryb2tlPSJub25lIiBpZD0iSWNvbi1BcmNoaXRlY3R1cmUvNDgvQXJjaF9BbGV4YS1Gb3ItQnVzaW5lc3NfNDgiPiYjeGE7ICAgICAgICA8ZyBmaWxsPSIjREQzNDRDIiBpZD0iSWNvbi1BcmNoaXRlY3R1cmUtQkcvNDgvQnVzaW5lc3MtQXBwbGljYXRpb25zIj4mI3hhOyAgICAgICAgICAgIDxyZWN0IGhlaWdodD0iNjQiIHdpZHRoPSI2NCIgeT0iMCIgeD0iMCIgaWQ9IlJlY3RhbmdsZSIvPiYjeGE7ICAgICAgICA8L2c+JiN4YTsgICAgICAgIDxwYXRoIGZpbGw9IiNGRkZGRkYiIGlkPSJBbGV4YS1Gb3ItQnVzaW5lc3NfSWNvbl80OF9TcXVpZCIgZD0iTTI1LjU3NjUwNjUsMzIuODU1MzA1NyBMMzMuNTc1NDAzMywzMi44NTUzMDU3IEwzMy41NzU0MDMzLDMwLjg0MTUyNTMgTDI1LjU3NjUwNjUsMzAuODQxNTI1MyBMMjUuNTc2NTA2NSwzMi44NTUzMDU3IFogTTI1LjU3NjUwNjUsMjguODI3NzQ0OSBMNDEuNTc0MywyOC44Mjc3NDQ5IEw0MS41NzQzLDI2LjgxMzk2NDUgTDI1LjU3NjUwNjUsMjYuODEzOTY0NSBMMjUuNTc2NTA2NSwyOC44Mjc3NDQ5IFogTTI1LjU3NjUwNjUsMjQuODAwMTg0IEwzOS41NzQ1NzU4LDI0LjgwMDE4NCBMMzkuNTc0NTc1OCwyMi43ODY0MDM2IEwyNS41NzY1MDY1LDIyLjc4NjQwMzYgTDI1LjU3NjUwNjUsMjQuODAwMTg0IFogTTI2LjU3NjM2ODYsNDUuMDM0NjQ5NiBMMjYuNTc2MzY4Niw1MS41NzMzOTQ2IEwyOS42NDg5NDQ4LDUwLjQ5MDk4NzYgQzQwLjg5ODM5MzMsNDcuNjQ3NTI5NyA0OS4wMDAyNzU4LDM4LjI1MTIzMDMgNDkuMDAwMjc1OCwyOC4xMjI5MjE3IEM0OS4wMDAyNzU4LDIzLjY1NTM0OTkgNDcuMTYzNTI5MSwxOS40OTk5MTQgNDMuODI4OTg5MSwxNi40MjA4NDM4IEM0MC4zOTY0NjI1LDEzLjI0OTEzOTYgMzUuNzIxMTA3MywxMS42NjgzMjIgMzAuOTg5NzU5OSwxMi4wNzgxMjYzIEMyMy43NzI3NTUzLDEyLjcwODQzOTYgMTcuNzQ2NTg2NCwxNy45Njg0MzQgMTYuMzM1NzgxLDI0Ljg2ODY1MjYgQzE0Ljc3Njk5NiwzMi40OTI4MjUyIDE4LjcxNjQ1MjcsNDAuMDg2NzkxMSAyNi4wNjY0Mzg5LDQyLjk1NTQyMTMgQzI2LjYzNDM2MDYsNDMuMTc2OTM3MiAyNi41NzYzNjg2LDQ1LjAzNDY0OTYgMjYuNTc2MzY4Niw0NS4wMzQ2NDk2IEwyNi41NzYzNjg2LDQ1LjAzNDY0OTYgWiBNMjUuNTc2NTA2NSw1NCBDMjUuMzcxNTM0OCw1NCAyNS4xNjk1NjI2LDUzLjkzNjU2NTkgMjQuOTk3NTg2NCw1My44MTM3MjUzIEMyNC43MzQ2MjI2LDUzLjYyNTQzNjggMjQuNTc2NjQ0NCw1My4zMTkzNDIyIDI0LjU3NjY0NDQsNTIuOTkzMTA5OCBMMjQuNTc2NjQ0NCw0NC45Mzc5ODgyIEMyNC41NzY2NDQ0LDQ0Ljc5NTAwOTcgMjQuNjAzNjQwNyw0NC42NjUxMjA5IDI0LjY0MDYzNTYsNDQuNTI3MTc2OSBDMTYuODczNzA2OCw0MC45NTg3NTgxIDEyLjY3MDI4NjYsMzIuODEyMDA5NCAxNC4zNzcwNTEyLDI0LjQ2Mjg3NTggQzE1Ljk2NDgzMjIsMTYuNjk2NzMxNyAyMi43MjU4OTk3LDEwLjc3OTIzNzkgMzAuODE3NzgzNiwxMC4wNzI0MDEgQzM2LjA5NjA1NTYsOS42MDkyMzE1MSA0MS4zMzUzMzMsMTEuMzg0Mzc4OSA0NS4xODA4MDI2LDE0LjkzNjY4NzYgQzQ4Ljg3OTI5MjUsMTguMzUxMDUyMyA1MSwyMy4xNTc5NDYxIDUxLDI4LjEyMjkyMTcgQzUxLDM5LjE2MjQ2NTkgNDIuMjYxMjA1Myw0OS4zNzkzODA4IDMwLjIyMTg2NTgsNTIuNDE4MTc1NSBMMjUuOTA2NDYxLDUzLjk0MzYxNDEgQzI1Ljc5OTQ3NTgsNTMuOTgwODY5MSAyNS42ODg0OTExLDU0IDI1LjU3NjUwNjUsNTQgTDI1LjU3NjUwNjUsNTQgWiBNMzIuMzQxNTczNCwxNi4zOTY2Nzg0IEMyNS45NTk0NTM3LDE2LjQ0NDAwMjIgMjAuNzYyMTcwNSwyMS43MjExMTM4IDIwLjc2MjE3MDUsMjguMTYxMTgzNSBDMjAuNzYyMTcwNSwzMi4zNTM4NzQ0IDIzLjE4MTgzNjgsMzYuMjgzNzY2OCAyNy4yMzQyNzc5LDM4LjY3NTEzMTEgQzI3LjgyNzE5NjEsMzkuMDIyNTA4MiAyOS4zMzA5ODg3LDQwLjA5MzgzOTQgMjkuNDk5OTY1NCw0MC4yMTU2NzMxIEMzMC43MjM3OTY2LDQxLjE0ODA1MzQgMzEuNDUwNjk2Myw0Mi41ODM4Nzg5IDMxLjU3MzY3OTQsNDQuMjc2NDYxMyBMMzEuNTc0Njc5Miw0NS4zODgwNjgxIEMzOC45NzA2NTkxLDQyLjg1NDczMjMgNDQuMjEyOTM2MSwzNi4wMTA4OTk2IDQ0LjIxMjkzNjEsMjguNjYxNjA4IEM0NC4yMTI5MzYxLDI3LjUyNTgzNTggNDQuMDYwOTU3MSwyNi40MDAxMzI2IDQzLjc2MTk5ODMsMjUuMzE1NzExOCBDNDMuNzM2MDAxOSwyNS4yMDk5ODg0IDQzLjcxNzAwNDUsMjUuMTUzNjAyNSA0My42OTkwMDcsMjUuMDk0MTk2IEM0My42OTUwMDc1LDI1LjA4MzEyMDIgNDMuNjY5MDExMSwyNC45OTg1NDE0IDQzLjY2NjAxMTUsMjQuOTg3NDY1NiBDNDIuMzcxMTkwMSwyMC4yODQyODE1IDM4LjI2Mjc1NjgsMTYuODUwNzg1OSAzMy40NDE0MjE3LDE2LjQ0NTAwOTEgTDMzLjMzNTQzNjQsMTYuNDM5OTc0NyBDMzMuMDYyNDc0LDE2LjQyNTg3ODIgMzIuNTE3NTQ5MiwxNi4zOTY2Nzg0IDMyLjM0MTU3MzQsMTYuMzk2Njc4NCBMMzIuMzQxNTczNCwxNi4zOTY2Nzg0IFogTTMwLjU3NTgxNyw0Ny43NTEyMzk0IEMzMC4zNTg4NDY5LDQ3Ljc1MTIzOTQgMzAuMTQzODc2Niw0Ny42Nzk3NTAyIDI5Ljk2NjkwMSw0Ny41NDE4MDYyIEMyOS43MjA5MzQ5LDQ3LjM1MTUwNCAyOS41NzU5NTQ5LDQ3LjA1NjQ4NTEgMjkuNTc1OTU0OSw0Ni43NDMzNDIzIEwyOS41NzY5NTQ3LDQ0LjM0OTk2NDMgQzI5LjQ5ODk2NTUsNDMuMzE2ODk0OSAyOS4wNTEwMjczLDQyLjM5ODYxMTEgMjguMzE4MTI4NCw0MS44Mzg3ODAxIEMyNy45MDMxODU2LDQxLjU0Mzc2MTMgMjYuNjY0MzU2NSw0MC42NzA3ODc1IDI2LjIyNjQxNjksNDAuNDE0MDMwNSBDMjEuNTUyMDYxNiwzNy42NTYxNTgyIDE4Ljc2MjQ0NjMsMzMuMDc2ODIxNSAxOC43NjI0NDYzLDI4LjE2MTE4MzUgQzE4Ljc2MjQ0NjMsMjAuNjE5NTc1OSAyNC44NTA2MDY2LDE0LjQzODI3NjkgMzIuMzMzNTc0NSwxNC4zODI4OTggQzMyLjUzNDU0NjgsMTQuMzgyODk4IDMzLjEzNjQ2MzgsMTQuNDEzMTA0NyAzMy40Mzk0MjIsMTQuNDI4MjA4IEwzMy41NzI0MDM3LDE0LjQzNTI1NjMgQzM5LjI1OTYxOTMsMTQuOTE0NTM2IDQ0LjA3NTk1NSwxOC45MzgwNjkzIDQ1LjU5Mzc0NTcsMjQuNDQ4Nzc5NCBDNDUuNjQxNzM5LDI0LjYwMDgxOTggNDUuNjczNzM0NiwyNC43MDg1NTcgNDUuNjk4NzMxMiwyNC44MjIzMzU2IEM0Ni4wMzU2ODQ3LDI2LjAzNTYzODMgNDYuMjEyNjYwMywyNy4zNDM1ODg3IDQ2LjIxMjY2MDMsMjguNjYxNjA4IEM0Ni4yMTI2NjAzLDM3LjMxNzg0MzEgMzkuNzQ0NTUyNCw0NS4zMzE2ODIyIDMwLjgzMjc4MTUsNDcuNzE3MDA1MSBDMzAuNzQ3NzkzMyw0Ny43NDAxNjM2IDMwLjY2MTgwNTEsNDcuNzUxMjM5NCAzMC41NzU4MTcsNDcuNzUxMjM5NCBMMzAuNTc1ODE3LDQ3Ljc1MTIzOTQgWiIvPiYjeGE7ICAgIDwvZz4mI3hhOzwvc3ZnPg==;" parent="1" vertex="1">
          <mxGeometry x="250" y="250" width="64" height="64" as="geometry" />
        </mxCell>
        <mxCell id="gv1-5fCZoS6OW8AC6obV-5" value="" style="shape=image;verticalLabelPosition=bottom;labelBackgroundColor=default;verticalAlign=top;aspect=fixed;imageAspect=0;image=data:image/svg+xml,PHN2ZyB4bWxuczp4bGluaz0iaHR0cDovL3d3dy53My5vcmcvMTk5OS94bGluayIgeG1sbnM9Imh0dHA6Ly93d3cudzMub3JnLzIwMDAvc3ZnIiB2ZXJzaW9uPSIxLjEiIHZpZXdCb3g9IjAgMCA2NCA2NCIgaGVpZ2h0PSI2NHB4IiB3aWR0aD0iNjRweCI+JiN4YTsgICAgPHRpdGxlPkljb24tQXJjaGl0ZWN0dXJlLzQ4L0FyY2hfQW1hem9uLUR5bmFtb0RCXzQ4PC90aXRsZT4mI3hhOyAgICA8ZyBmaWxsLXJ1bGU9ImV2ZW5vZGQiIGZpbGw9Im5vbmUiIHN0cm9rZS13aWR0aD0iMSIgc3Ryb2tlPSJub25lIiBpZD0iSWNvbi1BcmNoaXRlY3R1cmUvNDgvQXJjaF9BbWF6b24tRHluYW1vREJfNDgiPiYjeGE7ICAgICAgICA8ZyBmaWxsPSIjQzkyNUQxIiBpZD0iSWNvbi1BcmNoaXRlY3R1cmUtQkcvNDgvRGF0YWJhc2UiPiYjeGE7ICAgICAgICAgICAgPHJlY3QgaGVpZ2h0PSI2NCIgd2lkdGg9IjY0IiB5PSIwIiB4PSIwIiBpZD0iUmVjdGFuZ2xlIi8+JiN4YTsgICAgICAgIDwvZz4mI3hhOyAgICAgICAgPHBhdGggZmlsbD0iI0ZGRkZGRiIgaWQ9IkFtYXpvbi1EeW5hbW9EQl9JY29uXzQ4X1NxdWlkIiBkPSJNNDYuNTg1ODI4NywyNS4yNDkyNzYzIEw0My4wMDA4NDc1LDI1LjI0OTI3NjMgQzQyLjY3Mjg0OTMsMjUuMjQ5Mjc2MyA0Mi4zNjU4NTA5LDI1LjA4NjUyMyA0Mi4xNzg4NTE5LDI0LjgxNDU5MzYgQzQxLjk5MTg1MjgsMjQuNTQxNjUzMyA0MS45NDg4NTMxLDI0LjE5MzkwNzEgNDIuMDY0ODUyNSwyMy44ODM1NjM4IEw0NC41NTc4Mzk0LDE3LjE2MjE1NiBMMzUuNjQ0ODg2MiwxNy4xNjIxNTYgTDMxLjU1MzkwNzcsMjYuMjYwMTY2MyBMMzYuMDAwODg0MywyNi4yNjAxNjYzIEMzNi4zMjE4ODI3LDI2LjI2MDE2NjMgMzYuNjIzODgxMSwyNi40MTU4NDM0IDM2LjgxMjg4MDEsMjYuNjgwNjk2NiBDMzYuOTk5ODc5MSwyNi45NDM1MjggMzcuMDUxODc4OCwyNy4yODIxNzYyIDM2Ljk0ODg3OTQsMjcuNTkwNDk3NiBMMzMuMjg4ODk4NiwzOC42OTEwODEyIEw0Ni41ODU4Mjg3LDI1LjI0OTI3NjMgWiBNNDkuNzA2ODEyMywyNC45NTMwODU1IEwzMS43MDc5MDY5LDQzLjE0OTEwNjMgQzMxLjUxNTkwNzksNDMuMzQ0MjA4MSAzMS4yNTg5MDkzLDQzLjQ0NTI5NzEgMzEuMDAwOTEwNiw0My40NDUyOTcxIEMzMC44MTg5MTE2LDQzLjQ0NTI5NzEgMzAuNjM3OTEyNSw0My4zOTU3NjM1IDMwLjQ3NTkxMzQsNDMuMjk0Njc0NCBDMzAuMDgwOTE1NSw0My4wNDgwMTczIDI5LjkwNDkxNjQsNDIuNTU5NzU3NCAzMC4wNTI5MTU2LDQyLjExNDk2NTggTDM0LjYxMjg5MTYsMjguMjgxOTQ2NCBMMzAuMDAwOTE1OSwyOC4yODE5NDY0IEMyOS42NjA5MTc3LDI4LjI4MTk0NjQgMjkuMzQ0OTE5MywyOC4xMDcwNjI0IDI5LjE1OTkyMDMsMjcuODE4OTU4OCBDMjguOTc2OTIxMywyNy41Mjg4MzMzIDI4Ljk0OTkyMTQsMjcuMTY1OTIzOCAyOS4wOTA5MjA3LDI2Ljg1MjU0NzkgTDM0LjA5MDg5NDQsMTUuNzMyNzU3NCBDMzQuMjUyODkzNSwxNS4zNzE4Njk3IDM0LjYwNzg5MTcsMTUuMTQwMzc1OSAzNS4wMDA4ODk2LDE1LjE0MDM3NTkgTDQ2LjAwMDgzMTgsMTUuMTQwMzc1OSBDNDYuMzI4ODMsMTUuMTQwMzc1OSA0Ni42MzU4Mjg0LDE1LjMwMzEyOTIgNDYuODIyODI3NCwxNS41NzUwNTg2IEM0Ny4wMDk4MjY1LDE1Ljg0Nzk5ODkgNDcuMDUyODI2MiwxNi4xOTU3NDUxIDQ2LjkzNzgyNjgsMTYuNTA2MDg4MyBMNDQuNDQzODQsMjMuMjI3NDk2MiBMNDguOTk5ODE2LDIzLjIyNzQ5NjIgQzQ5LjQwMzgxMzksMjMuMjI3NDk2MiA0OS43Njk4MTIsMjMuNDc0MTUzNCA0OS45MjM4MTExLDIzLjg1MTIxNTQgQzUwLjA3ODgxMDMsMjQuMjI5Mjg4MiA0OS45OTI4MTA4LDI0LjY2Mzk3MSA0OS43MDY4MTIzLDI0Ljk1MzA4NTUgTDQ5LjcwNjgxMjMsMjQuOTUzMDg1NSBaIE00MS4wMDA4NTgxLDQ0LjIxOTYzODggQzM4LjI5MDg3MjMsNDYuMTA1OTU5NyAzMy4zMTM4OTg1LDQ3LjEwMTY4NjMgMjguNTMyOTIzNiw0Ny4xMDE2ODYzIEMyMy43MTY5NDg5LDQ3LjEwMTY4NjMgMTguNjk1OTc1Myw0Ni4wOTI4MTgxIDE1Ljk5OTk4OTUsNDQuMTc4MTkyMyBMMTYuMDAwOTg5NSw0Ny45OTQzMDIzIEMxNi4wMDA5ODk1LDQ5LjY1ODIyNzMgMjAuNzY4OTY0NCw1MS45NzgyMTk5IDI4LjUzMjkyMzYsNTEuOTc4MjE5OSBDMzYuMDI3ODg0Miw1MS45NzgyMTk5IDQxLjAwMDg1ODEsNDkuMjc2MTEwOCA0MS4wMDA4NTgxLDQ3LjQ4ODg1NzIgTDQxLjAwMDg1ODEsNDQuMjE5NjM4OCBaIE00My4wNjQ4NDcyLDQwLjk1MDQyMDQgQzQzLjA2NDg0NzIsNDEuMTM3NDM1MSA0My4wMzI4NDc0LDQxLjMxNzM3MzUgNDMuMDAwODQ3NSw0MS40OTYzMDExIEw0My4wMDA4NDc1LDQ3LjQ4ODg1NzIgQzQzLjAwMDg0NzUsNTEuMDc5NTM4NyAzNi41MTA4ODE3LDU0IDI4LjUzMjkyMzYsNTQgQzIxLjYyOTk1OTksNTQgMTQuNjYxOTk2NSw1Mi4xMTA2NDY1IDE0LjA1OTk5OTcsNDguNDk5NzQ3MyBMMTQuMDAxLDQ4LjQ5OTc0NzMgTDE0LDQzLjQ0NTI5NzEgTDE0LDMwLjMwMzcyNjUgTDE0LDE2LjE1MTI2NTkgTDE0LjAwMSwxNi4xNTEyNjU5IEMxNC4wMDEsMTIuMTU1MjE3NiAyMS40ODc5NjA2LDEwIDI4LjUzMjkyMzYsMTAgQzMyLjQ3MzkwMjksMTAgMzYuMjYyODgzLDEwLjYzOTg5MzQgMzguOTI5ODY4OSwxMS43NTU5MTYgTDM4LjE2Mzg3MywxMy42MjQwNDA4IEMzNS43MzE4ODU4LDEyLjYwNTA2MzYgMzIuMjIwOTA0MiwxMi4wMjE3ODAxIDI4LjUzMjkyMzYsMTIuMDIxNzgwMSBDMjAuNzY4OTY0NCwxMi4wMjE3ODAxIDE2LjAwMDk4OTUsMTQuNDI2Njg3NSAxNi4wMDA5ODk1LDE2LjE1MTI2NTkgQzE2LjAwMDk4OTUsMTcuODc1ODQ0MyAyMC43Njg5NjQ0LDIwLjI4MDc1MTcgMjguNTMyOTIzNiwyMC4yODA3NTE3IEMyOC43Mjc5MjI2LDIwLjI4MDc1MTcgMjguOTMxOTIxNSwyMC4yODE3NjI2IDI5LjEyODkyMDUsMjAuMjczNjc1NSBMMjkuMjA2OTIwMSwyMi4yOTM0MzM4IEMyOC45ODE5MjEyLDIyLjMwMjUzMTggMjguNzU3OTIyNCwyMi4zMDI1MzE4IDI4LjUzMjkyMzYsMjIuMzAyNTMxOCBDMjMuNzE1OTQ4OSwyMi4zMDI1MzE4IDE4LjY5NTk3NTMsMjEuMjkzNjYzNiAxNS45OTk5ODk1LDE5LjM3OTAzNzggTDE1Ljk5OTk4OTUsMjMuNzM2OTg0OCBMMTYuMDAwOTg5NSwyMy43MzY5ODQ4IEwxNi4wMDA5ODk1LDIzLjc1NDE2OTkgQzE2LjAwNTk4OTUsMjQuMjgzODc2MyAxNi40ODk5ODY5LDI0Ljg5NzQ4NjYgMTcuMzY0OTgyMywyNS40NzM2OTM5IEMxOS4zNDY5NzE5LDI2Ljc2MTU2NzggMjIuOTE0OTUzMSwyNy42NDIwNTMgMjYuOTAzOTMyMiwyNy44MjUwMjQxIEwyNi44MTI5MzI2LDI5Ljg0NDc4MjQgQzIyLjY4Njk1NDMsMjkuNjU0NzM1MSAxOS4wNjI5NzM0LDI4Ljc3NjI3MTcgMTYuNzI2OTg1NywyNy40Mjg3NTUyIEMxNi40MTY5ODczLDI3LjcyNjk2NzggMTYuMDAwOTg5NSwyOC40ODUxMzUzIDE2LjAwMDk4OTUsMjguODk1NTU2NyBDMTYuMDAwOTg5NSwzMC42MjAxMzUxIDIwLjc2ODk2NDQsMzMuMDI1MDQyNSAyOC41MzI5MjM2LDMzLjAyNTA0MjUgQzI5LjI3MDkxOTcsMzMuMDI1MDQyNSAyOS45OTc5MTU5LDMyLjk5OTc3MDMgMzAuNjk0OTEyMiwzMi45NTAyMzY2IEwzMC44MzU5MTE1LDM0Ljk2Njk2MjMgQzMwLjA5MTkxNTQsMzUuMDIwNTM5NCAyOS4zMTY5MTk1LDM1LjA0NjgyMjYgMjguNTMyOTIzNiwzNS4wNDY4MjI2IEMyMy43MTU5NDg5LDM1LjA0NjgyMjYgMTguNjk1OTc1MywzNC4wMzc5NTQzIDE1Ljk5OTk4OTUsMzIuMTIzMzI4NiBMMTUuOTk5OTg5NSwzNS43OTI4NTk0IEwxNi4wMDA5ODk1LDM1Ljc5Mjg1OTQgQzE2LjAwNTk4OTUsMzYuMzM5NzUxIDE2LjQ4OTk4NjksMzYuOTUzMzYxMiAxNy4zNjQ5ODIzLDM3LjUyOTU2ODUgQzE5LjYzMjk3MDQsMzkuMDA0NDU3MSAyMy45MTM5NDc5LDM5LjkyMzM1NjIgMjguNTMyOTIzNiwzOS45MjMzNTYyIEwyOC44NjI5MjE5LDM5LjkyMzM1NjIgTDI4Ljg2MjkyMTksNDEuOTQ1MTM2MiBMMjguNTMyOTIzNiw0MS45NDUxMzYyIEMyMy43NTQ5NDg3LDQxLjk0NTEzNjIgMTguNjcyOTc1NCw0MC45MzcyNzg5IDE2LjAwMDk4OTUsMzkuNDAxNzM2OSBDMTUuNjc4OTkxMiwzOS42OTk5NDk1IDE2LjAwMDk4OTUsNDAuNDEyNjI2OSAxNi4wMDA5ODk1LDQwLjk1MDQyMDQgQzE2LjAwMDk4OTUsNDIuNjc0OTk4OSAyMC43Njg5NjQ0LDQ1LjA3OTkwNjMgMjguNTMyOTIzNiw0NS4wNzk5MDYzIEMzNi4yOTc4ODI4LDQ1LjA3OTkwNjMgNDEuMDY0ODU3Nyw0Mi42NzQ5OTg5IDQxLjA2NDg1NzcsNDAuOTUwNDIwNCBDNDEuMDY0ODU3Nyw0MC4zNDA4NTM3IDQwLjQ2NTg2MDksMzkuNzc1NzY2MiAzOS45NzI4NjM1LDM5LjQxMTg0NTggQzM5LjU2Mzg2NTYsMzkuNjU4NTAzIDM5LjExMzg2OCwzOS44OTUwNTEyIDM4LjYwMDg3MDcsNDAuMTExMzgxNyBMMzcuODMyODc0NywzOC4yNDQyNjc4IEMzOC4zNjM4NzE5LDM4LjAyMDg2MTEgMzguODIyODY5NSwzNy43ODEyODAyIDM5LjE5Njg2NzUsMzcuNTMyNjAxMiBDNDAuMjk3ODYxNywzNi43OTg2OTUgNDEuMDAwODU4MSwzNS43NTQ0NDU2IDQxLjAwMDg1ODEsMzUuMzU4MTc2NyBMNDMuMDAwODQ3NSwzNS4zNTgxNzY3IEM0My4wMDA4NDc1LDM2LjI5ODMwNDUgNDIuMzc5ODUwOCwzNy4zMDUxNTA5IDQxLjU4Mzg1NSwzOC4xMzMwNjk5IEM0Mi43NzU4NDg3LDM5LjE3MzI3NTcgNDMuMDY0ODQ3Miw0MC4yMTE0NTk4IDQzLjA2NDg0NzIsNDAuOTUwNDIwNCBMNDMuMDY0ODQ3Miw0MC45NTA0MjA0IFogTTE3LjE0MTk4MzUsNDguMzg4NTQ5NCBDMTcuOTMyOTc5Myw0OC43OTY5NDkgMTguODU3OTc0NSw0OS4xNjA4Njk0IDE5Ljg5Mzk2OSw0OS40NjkxOTA4IEwyMC40NTc5NjYsNDcuNTI5MjkyOCBDMTkuNTQxOTcwOSw0Ny4yNTczNjM0IDE4LjczMTk3NTEsNDYuOTM5OTQzOSAxOC4wNTE5Nzg3LDQ2LjU4ODE1NDIgTDE3LjE0MTk4MzUsNDguMzg4NTQ5NCBaIE0xOS44OTM5NjksMzcuMzM4NTEwMyBMMjAuNDU3OTY2LDM1LjM5OTYyMzIgQzE5LjU0MTk3MDksMzUuMTI2NjgyOSAxOC43MzE5NzUxLDM0LjgxMDI3NDMgMTguMDUxOTc4NywzNC40NTg0ODQ2IEwxNy4xNDE5ODM1LDM2LjI1Nzg2ODkgQzE3LjkzMjk3OTMsMzYuNjY3Mjc5MyAxOC44NTc5NzQ1LDM3LjAzMDE4ODkgMTkuODkzOTY5LDM3LjMzODUxMDMgTDE5Ljg5Mzk2OSwzNy4zMzg1MTAzIFogTTE3LjE0MTk4MzUsMjQuMTI4MTk5MiBMMTguMDUxOTc4NywyMi4zMjc4MDQxIEMxOC43MzE5NzUxLDIyLjY3OTU5MzggMTkuNTQxOTcwOSwyMi45OTYwMDI0IDIwLjQ1Nzk2NiwyMy4yNjg5NDI3IEwxOS44OTM5NjksMjUuMjA4ODQwNyBDMTguODU3OTc0NSwyNC45MDA1MTkyIDE3LjkzMjk3OTMsMjQuNTM2NTk4OCAxNy4xNDE5ODM1LDI0LjEyODE5OTIgTDE3LjE0MTk4MzUsMjQuMTI4MTk5MiBaIi8+JiN4YTsgICAgPC9nPiYjeGE7PC9zdmc+;" parent="1" vertex="1">
          <mxGeometry x="450" y="108.5" width="64" height="64" as="geometry" />
        </mxCell>
        <mxCell id="gv1-5fCZoS6OW8AC6obV-6" value="" style="shape=image;verticalLabelPosition=bottom;labelBackgroundColor=default;verticalAlign=top;aspect=fixed;imageAspect=0;image=data:image/svg+xml,PHN2ZyB4bWxuczp4bGluaz0iaHR0cDovL3d3dy53My5vcmcvMTk5OS94bGluayIgeG1sbnM9Imh0dHA6Ly93d3cudzMub3JnLzIwMDAvc3ZnIiB2ZXJzaW9uPSIxLjEiIHZpZXdCb3g9IjAgMCA2NCA2NCIgaGVpZ2h0PSI2NHB4IiB3aWR0aD0iNjRweCI+JiN4YTsgICAgPHRpdGxlPkljb24tQXJjaGl0ZWN0dXJlLzQ4L0FyY2hfQVdTLUxhbWJkYV80ODwvdGl0bGU+JiN4YTsgICAgPGcgZmlsbC1ydWxlPSJldmVub2RkIiBmaWxsPSJub25lIiBzdHJva2Utd2lkdGg9IjEiIHN0cm9rZT0ibm9uZSIgaWQ9Ikljb24tQXJjaGl0ZWN0dXJlLzQ4L0FyY2hfQVdTLUxhbWJkYV80OCI+JiN4YTsgICAgICAgIDxnIGZpbGw9IiNFRDcxMDAiIGlkPSJJY29uLUFyY2hpdGVjdHVyZS1CRy80OC9Db21wdXRlIj4mI3hhOyAgICAgICAgICAgIDxyZWN0IGhlaWdodD0iNjQiIHdpZHRoPSI2NCIgeT0iMCIgeD0iMCIgaWQ9IlJlY3RhbmdsZSIvPiYjeGE7ICAgICAgICA8L2c+JiN4YTsgICAgICAgIDxwYXRoIGZpbGw9IiNGRkZGRkYiIGlkPSJBV1MtTGFtYmRhX0ljb25fNDhfU3F1aWQiIGQ9Ik0yMi42Nzk0MDk0LDUyIEwxMy41NzQwNzAxLDUyIEwyMy44Mzc2MTg5LDMwLjQxIEwyOC4zOTk3NDk0LDM5Ljg2MSBMMjIuNjc5NDA5NCw1MiBaIE0yNC43MjY5NDA2LDI3LjY2NyBDMjQuNTYwNjI4NSwyNy4zMjEgMjQuMjEyMDcwMiwyNy4xMDMgMjMuODMwNjQ3OCwyNy4xMDMgTDIzLjgyNzY2MDEsMjcuMTAzIEMyMy40NDUyNDE4LDI3LjEwNCAyMy4wOTY2ODM1LDI3LjMyNSAyMi45MzIzNjMyLDI3LjY3MiBMMTEuMDk3MzE0Myw1Mi41NjkgQzEwLjk0OTkyMzksNTIuODc5IDEwLjk3MDgzNzQsNTMuMjQzIDExLjE1NDA3OTUsNTMuNTM0IEMxMS4zMzUzMjk4LDUzLjgyNCAxMS42NTQwMTE3LDU0IDExLjk5NTU5ODksNTQgTDIzLjMwOTgwMiw1NCBDMjMuNjk1MjA4LDU0IDI0LjA0NDc2MjIsNTMuNzc3IDI0LjIxMDA3ODQsNTMuNDI4IEwzMC40MDQ0NTc3LDQwLjI4NCBDMzAuNTMyOTI2NCw0MC4wMSAzMC41MzE5MzA1LDM5LjY5MiAzMC4zOTk0NzgzLDM5LjQyIEwyNC43MjY5NDA2LDI3LjY2NyBaIE01MS4wMDgyMzgyLDUyIEw0MS45ODU1NTcsNTIgTDI2Ljk1NDcyNjIsMTkuNTc4IEMyNi43OTE0MDE3LDE5LjIyNiAyNi40Mzg4NTk5LDE5IDI2LjA1MjQ1ODEsMTkgTDIwLjEyNzk2MjUsMTkgTDIwLjEzNDkzMzcsMTIgTDMxLjgxNDYyNTEsMTIgTDQ2Ljc3NDc0ODMsNDQuNDIgQzQ2LjkzODA3MjgsNDQuNzc0IDQ3LjI5MDYxNDcsNDUgNDcuNjc5MDA4Miw0NSBMNTEuMDA4MjM4Miw0NSBMNTEuMDA4MjM4Miw1MiBaIE01Mi4wMDQxMTkxLDQzIEw0OC4zMTQzODAzLDQzIEwzMy4zNTQyNTcsMTAuNTggQzMzLjE5MDkzMjYsMTAuMjI2IDMyLjgzODM5MDcsMTAgMzIuNDUwOTkzLDEwIEwxOS4xNDAwNDg2LDEwIEMxOC41OTEzMTgyLDEwIDE4LjE0NTE2MzYsMTAuNDQ3IDE4LjE0NDE2NzcsMTAuOTk5IEwxOC4xMzYyMDA2LDE5Ljk5OSBDMTguMTM2MjAwNiwyMC4yNjUgMTguMjQwNzY4MSwyMC41MTkgMTguNDI2OTk3OSwyMC43MDcgQzE4LjYxNDIyMzUsMjAuODk1IDE4Ljg2NzE3NzIsMjEgMTkuMTMxMDg1NywyMSBMMjUuNDE3MDg2MSwyMSBMNDAuNDQ3OTE2OCw1My40MjIgQzQwLjYxMTI0MTMsNTMuNzc0IDQwLjk2Mjc4NzMsNTQgNDEuMzUwMTg1LDU0IEw1Mi4wMDQxMTkxLDU0IEM1Mi41NTQ4NDEyLDU0IDUzLDUzLjU1MiA1Myw1MyBMNTMsNDQgQzUzLDQzLjQ0OCA1Mi41NTQ4NDEyLDQzIDUyLjAwNDExOTEsNDMgTDUyLjAwNDExOTEsNDMgWiIvPiYjeGE7ICAgIDwvZz4mI3hhOzwvc3ZnPg==;" parent="1" vertex="1">
          <mxGeometry x="249.99999999999997" y="110" width="64" height="64" as="geometry" />
        </mxCell>
        <mxCell id="gv1-5fCZoS6OW8AC6obV-7" value="" style="shape=image;verticalLabelPosition=bottom;labelBackgroundColor=default;verticalAlign=top;aspect=fixed;imageAspect=0;image=data:image/svg+xml,PHN2ZyB4bWxuczp4bGluaz0iaHR0cDovL3d3dy53My5vcmcvMTk5OS94bGluayIgeG1sbnM9Imh0dHA6Ly93d3cudzMub3JnLzIwMDAvc3ZnIiB2ZXJzaW9uPSIxLjEiIHZpZXdCb3g9IjAgMCA2NCA2NCIgaGVpZ2h0PSI2NHB4IiB3aWR0aD0iNjRweCI+JiN4YTsgICAgPHRpdGxlPkljb24tQXJjaGl0ZWN0dXJlLzQ4L0FyY2hfQVdTLUNsb3VkRm9ybWF0aW9uXzQ4PC90aXRsZT4mI3hhOyAgICA8ZyBmaWxsLXJ1bGU9ImV2ZW5vZGQiIGZpbGw9Im5vbmUiIHN0cm9rZS13aWR0aD0iMSIgc3Ryb2tlPSJub25lIiBpZD0iSWNvbi1BcmNoaXRlY3R1cmUvNDgvQXJjaF9BV1MtQ2xvdWRGb3JtYXRpb25fNDgiPiYjeGE7ICAgICAgICA8ZyBmaWxsPSIjRTcxNTdCIiBpZD0iSWNvbi1BcmNoaXRlY3R1cmUtQkcvNDgvTWFuYWdlbWVudC1Hb3Zlcm5hbmNlIj4mI3hhOyAgICAgICAgICAgIDxyZWN0IGhlaWdodD0iNjQiIHdpZHRoPSI2NCIgeT0iMCIgeD0iMCIgaWQ9IlJlY3RhbmdsZSIvPiYjeGE7ICAgICAgICA8L2c+JiN4YTsgICAgICAgIDxwYXRoIGZpbGw9IiNGRkZGRkYiIGlkPSJBV1MtQ2xvdWRGb3JtYXRpb25fSWNvbl80OF9TcXVpZCIgZD0iTTQyLjAwODAwMiwzMi43ODgwMjE1IEw0Ni4wMDkwMDIzLDMyLjc4ODAyMTUgTDQ2LjAwOTAwMjMsMzAuNzY1NzA4IEw0Mi4wMDgwMDIsMzAuNzY1NzA4IEw0Mi4wMDgwMDIsMzIuNzg4MDIxNSBaIE0yMy4wMDMyNTA4LDQyLjg5OTU4OTEgTDI3LjAwNDI1MTEsNDIuODk5NTg5MSBMMjcuMDA0MjUxMSw0MC44NzcyNzU2IEwyMy4wMDMyNTA4LDQwLjg3NzI3NTYgTDIzLjAwMzI1MDgsNDIuODk5NTg5MSBaIE0xNS4wMDEyNTAzLDQyLjg5OTU4OTEgTDIwLjAwMjUwMDYsNDIuODk5NTg5MSBMMjAuMDAyNTAwNiw0MC44NzcyNzU2IEwxNS4wMDEyNTAzLDQwLjg3NzI3NTYgTDE1LjAwMTI1MDMsNDIuODk5NTg5MSBaIE0xNS4wMDEyNTAzLDM3Ljg0MzgwNTMgTDI0LjAwMzUwMDksMzcuODQzODA1MyBMMjQuMDAzNTAwOSwzNS44MjE0OTE4IEwxNS4wMDEyNTAzLDM1LjgyMTQ5MTggTDE1LjAwMTI1MDMsMzcuODQzODA1MyBaIE0xNS4wMDEyNTAzLDI4Ljc0MzM5NDUgTDIyLjAwMzAwMDgsMjguNzQzMzk0NSBMMjIuMDAzMDAwOCwyNi43MjEwODEgTDE1LjAwMTI1MDMsMjYuNzIxMDgxIEwxNS4wMDEyNTAzLDI4Ljc0MzM5NDUgWiBNMTUuMDAxMjUwMywzMi43ODgwMjE1IEw0MC4wMDc1MDE5LDMyLjc4ODAyMTUgTDQwLjAwNzUwMTksMzAuNzY1NzA4IEwxNS4wMDEyNTAzLDMwLjc2NTcwOCBMMTUuMDAxMjUwMywzMi43ODgwMjE1IFogTTMwLjAwNTAwMTMsNDkuOTc3Njg2NSBMMTIuMDAwNTAwMSw0OS45Nzc2ODY1IEwxMi4wMDA1MDAxLDIzLjY4NzYxMDcgTDMwLjAwNTAwMTMsMjMuNjg3NjEwNyBMMzAuMDA1MDAxMywyOC43NDMzOTQ1IEwzMi4wMDU1MDE0LDI4Ljc0MzM5NDUgTDMyLjAwNTUwMTQsMjIuNjc2NDUzOSBDMzIuMDA1NTAxNCwyMi4xMTgyOTU0IDMxLjU1NzM4OTMsMjEuNjY1Mjk3MSAzMS4wMDUyNTEzLDIxLjY2NTI5NzEgTDExLjAwMDI1MDEsMjEuNjY1Mjk3MSBDMTAuNDQ3MTExOCwyMS42NjUyOTcxIDEwLDIyLjExODI5NTQgMTAsMjIuNjc2NDUzOSBMMTAsNTAuOTg4ODQzMiBDMTAsNTEuNTQ3MDAxOCAxMC40NDcxMTE4LDUyIDExLjAwMDI1MDEsNTIgTDMxLjAwNTI1MTMsNTIgQzMxLjU1NzM4OTMsNTIgMzIuMDA1NTAxNCw1MS41NDcwMDE4IDMyLjAwNTUwMTQsNTAuOTg4ODQzMiBMMzIuMDA1NTAxNCwzNS44MjE0OTE4IEwzMC4wMDUwMDEzLDM1LjgyMTQ5MTggTDMwLjAwNTAwMTMsNDkuOTc3Njg2NSBaIE01NCwzMC43NjU3MDggQzU0LDM2LjM2NDQ4MyA0OS40MjY4NTY3LDM3Ljg0MzgwNTMgNDcuMDA5MjUyMywzNy44NDM4MDUzIEwzNS4wMDYyNTE2LDM3Ljg0MzgwNTMgTDM1LjAwNjI1MTYsMzUuODIxNDkxOCBMNDcuMDA5MjUyMywzNS44MjE0OTE4IEM0Ny41MTczNzkzLDM1LjgxNzQ0NzIgNTEuOTk5NDk5OSwzNS42NDM1MjgyIDUxLjk5OTQ5OTksMzAuNzY1NzA4IEM1MS45OTk0OTk5LDI2LjcwNjkyNDggNDkuMTk4Nzk5NywyNC45MTYxNjYxIDQ3Ljg0MjQ2MDYsMjQuNjg0NjExMiBDNDcuMzI5MzMyMywyNC41OTY2NDA2IDQ2Ljk2OTI0MjMsMjQuMTI3NDYzOSA0Ny4wMTMyNTMzLDIzLjYwMzY4NDcgQzQ3LjAxNDI1MzYsMjMuNTkwNTM5NiA0Ny4wMTUyNTM4LDIzLjU3NzM5NDYgNDcuMDE3MjU0MywyMy41NjUyNjA3IEM0Ni45NzgyNDQ2LDIxLjk2NDU5OTUgNDYuMjAwMDUsMjAuNzk1NzAyMyA0NC44NjU3MTY0LDIwLjM0Nzc1OTkgQzQzLjU3MDM5MjYsMTkuOTEzOTczNiA0Mi4xMDkwMjczLDIwLjI5NjE5MDkgNDEuMzk3ODQ5NSwyMS4yNTg4MTIxIEM0MS4xNzc3OTQ0LDIxLjU1NzEwMzQgNDAuODE3NzA0NCwyMS43MTM4MzI3IDQwLjQ0NzYxMTksMjEuNjU0MTc0NCBDNDAuMDgzNTIwOSwyMS41OTg1NjA4IDM5Ljc3ODQ0NDYsMjEuMzQ1NzcxNiAzOS42NTQ0MTM2LDIwLjk5Mzg4OTEgQzM5LjE4MzI5NTgsMTkuNjYzMjA2OCAzOC40OTcxMjQzLDE4Ljc5NTYzNDMgMzcuNTQwODg1MiwxNy44Mjg5Njg0IEMzNS4yNDEzMTAzLDE1LjUyMTUwODcgMzIuOTYzNzQwOSwxNC4yNDg0NjIzIDI5LjMzNjgzNDIsMTUuNTQwNzIwNiBDMjcuNjkxNDIyOSwxNi4xMjYxODA0IDI1LjcxMjkyODIsMTguMTQzNDM4MSAyNC45MjU3MzE0LDIwLjAzNTMxMjQgTDIzLjA4MTI3MDMsMTkuMjUwNjU0OCBDMjQuMDkxNTIyOSwxNi44MjM4Nzg2IDI2LjQ5NTEyMzgsMTQuNDA5MjM2MiAyOC42NzI2NjgyLDEzLjYzMzY3OSBDMzMuNTY0ODkxMiwxMS44OTA0NDQ3IDM2LjYxNjY1NDIsMTQuMDUxMjg2NyAzOC45NTIyMzgxLDE2LjM5NjE1OTMgQzM5Ljc0NjQzNjYsMTcuMTk5MDE3NyA0MC40MTE2MDI5LDE3Ljk4MjY2NDIgNDAuOTQzNzM1OSwxOC45Njc1MzA5IEM0Mi4yMTgwNTQ1LDE4LjEyOTI4MTkgNDMuOTE3NDc5NCwxNy44OTc3MjcgNDUuNDk2ODc0MiwxOC40Mjg1ODQzIEM0Ny40NzAzNjc2LDE5LjA5MDg5MiA0OC43MzA2ODI3LDIwLjczNDAyMTggNDguOTc1NzQzOSwyMi45MDA5MzA3IEM1MS4xODMyOTU4LDIzLjY3NTQ3NjggNTQsMjYuMTg1MTY3OSA1NCwzMC43NjU3MDggTDU0LDMwLjc2NTcwOCBaIi8+JiN4YTsgICAgPC9nPiYjeGE7PC9zdmc+;" parent="1" vertex="1">
          <mxGeometry x="585" y="19" width="64" height="64" as="geometry" />
        </mxCell>
      </root>
    </mxGraphModel>
  </diagram>
</mxfile>
